# xmcd CD database file
#
# Track frame offsets:
#	182
#	31682
#	62595
#	100120
#	142350
#	176407
#	206392
#	280567
#	312202
#
# Disc length: 4414 seconds
#
# Revision: 2
# Processed by: cddbd v1.4PL0 Copyright (c) Steve Scherf et al.
# Submitted via: CDex 1.50
#
DISCID=74113c09
DTITLE=John Scofield - Pick Hits Live
DYEAR=1987
DGENRE=Jazz
TTITLE0=Picks And Pans
TTITLE1=Pick Hits
TTITLE2=Heaven Hill
TTITLE3=Protocol
TTITLE4=Blue Matter
TTITLE5=Thanks Again
TTITLE6=Trim
TTITLE7=Georgia On My Mind
TTITLE8=Make Me
EXTD=YEAR: 1987
EXTT0=
EXTT1=
EXTT2=
EXTT3=
EXTT4=
EXTT5=
EXTT6=
EXTT7=
EXTT8=
PLAYORDER=
